<svg width="114" height="114" viewBox="0 0 114 114" fill="none" xmlns="http://www.w3.org/2000/svg">
<path d="M28.5 32.6705V28.5C28.5 25.6655 29.626 22.9471 31.6303 20.9428C33.6346 18.9385 36.353 17.8125 39.1875 17.8125H74.8125C77.647 17.8125 80.3654 18.9385 82.3697 20.9428C84.374 22.9471 85.5 25.6655 85.5 28.5V32.6705M28.5 32.6705C29.6162 32.2762 30.8132 32.0625 32.0625 32.0625H81.9375C83.1868 32.0625 84.3838 32.2762 85.5 32.6705M28.5 32.6705C26.4158 33.4074 24.6113 34.7725 23.3353 36.5777C22.0592 38.3829 21.3743 40.5393 21.375 42.75V46.9205M85.5 32.6705C87.5842 33.4074 89.3887 34.7725 90.6647 36.5777C91.9408 38.3829 92.6257 40.5393 92.625 42.75V46.9205M21.375 46.9205C22.4912 46.5263 23.6882 46.3125 24.9375 46.3125H89.0625C90.2759 46.3111 91.4807 46.5167 92.625 46.9205M21.375 46.9205C17.2235 48.3883 14.25 52.345 14.25 57V85.5C14.25 88.3345 15.376 91.0529 17.3803 93.0572C19.3846 95.0615 22.103 96.1875 24.9375 96.1875H89.0625C91.897 96.1875 94.6154 95.0615 96.6197 93.0572C98.624 91.0529 99.75 88.3345 99.75 85.5V57C99.7507 54.7893 99.0658 52.6329 97.7897 50.8277C96.5137 49.0225 94.7092 47.6574 92.625 46.9205" stroke="black" stroke-width="1.5" stroke-linecap="round" stroke-linejoin="round"/>
</svg>
